<svg width="13" height="16" viewBox="0 0 13 16" fill="none" xmlns="http://www.w3.org/2000/svg">
<path d="M9.28813 3.80439C9.39956 3.80439 9.572 3.81766 9.80547 3.84419C10.0442 3.86541 10.3148 3.92378 10.6173 4.01929C10.9197 4.11479 11.2275 4.26867 11.5405 4.48091C11.8536 4.69315 12.1428 4.99028 12.4081 5.37231C12.3815 5.38823 12.2807 5.45986 12.1056 5.58721C11.9358 5.71455 11.7422 5.90026 11.5246 6.14434C11.3071 6.38311 11.116 6.6882 10.9516 7.05962C10.7924 7.42573 10.7128 7.86348 10.7128 8.37285C10.7128 8.95651 10.8136 9.44997 11.0152 9.85322C11.2222 10.2565 11.4609 10.5828 11.7315 10.8322C12.0075 11.0816 12.2515 11.2646 12.4638 11.3813C12.6813 11.4928 12.798 11.5511 12.814 11.5564C12.8087 11.5777 12.7689 11.6971 12.6946 11.9146C12.6203 12.1268 12.5036 12.4028 12.3444 12.7423C12.1905 13.0766 11.9889 13.4268 11.7395 13.7929C11.5113 14.1166 11.2752 14.427 11.0312 14.7241C10.7924 15.0213 10.5297 15.2627 10.2432 15.4484C9.962 15.6394 9.64364 15.7349 9.28813 15.7349C9.01753 15.7349 8.78672 15.7031 8.5957 15.6394C8.40469 15.5757 8.22163 15.5014 8.04653 15.4166C7.87674 15.337 7.68838 15.2653 7.48145 15.2017C7.27451 15.138 7.01717 15.1062 6.70942 15.1062C6.30617 15.1062 5.96924 15.1566 5.69863 15.2574C5.43333 15.3635 5.1813 15.4696 4.94253 15.5757C4.70376 15.6819 4.42254 15.7349 4.09888 15.7349C3.60542 15.7349 3.17033 15.5412 2.7936 15.1539C2.42218 14.7666 2.04015 14.2996 1.64751 13.7531C1.34507 13.318 1.06916 12.8166 0.819775 12.2489C0.570394 11.6811 0.371419 11.0789 0.222852 10.4422C0.0742839 9.80547 5.02914e-08 9.16875 5.02914e-08 8.53203C5.02914e-08 7.51328 0.193669 6.65371 0.581006 5.95332C0.968343 5.24762 1.46445 4.71437 2.06934 4.35356C2.67422 3.98745 3.30298 3.80439 3.95562 3.80439C4.3005 3.80439 4.62417 3.86541 4.92661 3.98745C5.23436 4.10949 5.52088 4.23153 5.78618 4.35356C6.05148 4.4703 6.2929 4.52866 6.51045 4.52866C6.71738 4.52866 6.96146 4.4703 7.24268 4.35356C7.52389 4.23153 7.83429 4.10949 8.17388 3.98745C8.51877 3.86541 8.89019 3.80439 9.28813 3.80439ZM8.73101 2.51504C8.46571 2.8387 8.13143 3.10666 7.72817 3.3189C7.33022 3.53114 6.9535 3.63726 6.598 3.63726C6.52371 3.63726 6.45208 3.6293 6.38311 3.61338C6.3778 3.59215 6.36984 3.55501 6.35923 3.50195C6.35392 3.44889 6.35127 3.39053 6.35127 3.32686C6.35127 2.9236 6.43882 2.53096 6.61392 2.14893C6.78901 1.76689 6.99064 1.44854 7.2188 1.19385C7.50002 0.85957 7.85552 0.581006 8.2853 0.358154C8.72039 0.135303 9.13691 0.0159181 9.53486 8.56817e-08C9.55078 0.0902019 9.55874 0.193669 9.55874 0.3104C9.55874 0.718962 9.4818 1.11691 9.32793 1.50425C9.17406 1.88628 8.97508 2.22321 8.73101 2.51504Z" fill="black"/>
</svg>
